<svg xmlns="http://www.w3.org/2000/svg" viewBox="0 0 435 83" width="435" height="83"><g transform="translate(0,4.70)"><g transform="scale(1.05)"><defs><linearGradient id="l1B1A20g" x1="0.3" y1="0" x2="0.7" y2="1"><stop offset="0" stop-color="#5ED6A8"/><stop offset="1" stop-color="#2EA37A"/></linearGradient></defs>
<rect x="26" y="4" width="68" height="66" rx="28" fill="url(#l1B1A20g)"/>
<ellipse cx="42" cy="38" rx="7" ry="3.2" fill="#fff" opacity="0.35"/>
<path d="M14 0 H106 V16 Q106 30 92 30 H28 Q14 30 14 16 Z" fill="#000000"/>
<ellipse cx="48" cy="46" rx="4.8" ry="5.6" fill="#1B1A20"/><ellipse cx="72" cy="46" rx="4.8" ry="5.6" fill="#1B1A20"/>
<circle cx="46.5" cy="44" r="1.6" fill="#fff"/><circle cx="70.5" cy="44" r="1.6" fill="#fff"/>
<ellipse cx="39" cy="55" rx="5" ry="2.4" fill="#FF8C9E" opacity="0.6"/><ellipse cx="81" cy="55" rx="5" ry="2.4" fill="#FF8C9E" opacity="0.6"/>
<path d="M55 56 Q60 61 65 56" stroke="#1B1A20" stroke-width="2.6" stroke-linecap="round" fill="none"/></g><g transform="translate(148.0,-24.10)"><path d="M11.600000000000001 98.2Q7.9 98.2 6.3500000000000005 97.15Q4.800000000000001 96.10000000000001 4.450000000000001 94.35000000000001Q4.1000000000000005 92.60000000000001 4.1000000000000005 90.7V55.5Q4.1000000000000005 53.6 4.5 51.95Q4.9 50.300000000000004 6.45 49.300000000000004Q8.0 48.300000000000004 11.700000000000001 48.300000000000004Q14.9 48.300000000000004 16.400000000000002 49.150000000000006Q17.900000000000002 50.0 18.35 51.2Q18.8 52.400000000000006 18.8 53.45Q18.8 54.5 19.0 54.900000000000006L18.900000000000002 55.300000000000004Q19.3 54.6 20.0 53.7Q21.3 52.2 23.35 50.95Q25.400000000000002 49.7 27.75 49.0Q30.1 48.300000000000004 32.4 48.300000000000004Q37.2 48.300000000000004 40.95 50.050000000000004Q44.7 51.800000000000004 47.300000000000004 55.10000000000001Q49.900000000000006 58.400000000000006 51.25 62.85000000000001Q52.6 67.30000000000001 52.6 72.60000000000001V90.80000000000001Q52.6 92.7 52.25 94.45Q51.900000000000006 96.2 50.35000000000001 97.2Q48.800000000000004 98.2 45.1 98.2Q41.300000000000004 98.2 39.75 97.15Q38.2 96.10000000000001 37.8 94.35000000000001Q37.4 92.60000000000001 37.4 90.7V72.60000000000001Q37.4 69.60000000000001 36.4 67.5Q35.4 65.4 33.4 64.25Q31.400000000000002 63.1 28.5 63.1Q25.6 63.1 23.5 64.3Q21.400000000000002 65.5 20.25 67.6Q19.1 69.7 19.1 72.60000000000001V90.80000000000001Q19.1 92.7 18.75 94.45Q18.400000000000002 96.2 16.85 97.2Q15.3 98.2 11.600000000000001 98.2Z M84.4 99.10000000000001Q79.7 99.10000000000001 75.05000000000001 97.25Q70.4 95.4 66.60000000000001 92.0Q62.800000000000004 88.60000000000001 60.60000000000001 83.85000000000001Q58.400000000000006 79.10000000000001 58.400000000000006 73.30000000000001Q58.400000000000006 67.9 60.400000000000006 63.25Q62.400000000000006 58.6 66.0 55.0Q69.60000000000001 51.400000000000006 74.25 49.35000000000001Q78.9 47.300000000000004 84.2 47.300000000000004Q91.4 47.300000000000004 97.25 50.75Q103.10000000000001 54.2 106.60000000000001 60.1Q110.10000000000001 66.0 110.10000000000001 73.2Q110.10000000000001 79.30000000000001 107.85000000000001 84.05000000000001Q105.60000000000001 88.80000000000001 101.85000000000001 92.20000000000002Q98.10000000000001 95.60000000000001 93.55000000000001 97.35000000000001Q89.0 99.10000000000001 84.4 99.10000000000001ZM84.2 84.0Q86.60000000000001 84.0 89.10000000000001 82.80000000000001Q91.60000000000001 81.60000000000001 93.30000000000001 79.20000000000002Q95.0 76.80000000000001 95.0 73.10000000000001Q95.0 69.9 93.6 67.5Q92.2 65.1 89.75 63.75Q87.30000000000001 62.400000000000006 84.10000000000001 62.400000000000006Q81.10000000000001 62.400000000000006 78.75 63.800000000000004Q76.4 65.2 74.95 67.65Q73.5 70.10000000000001 73.5 73.2Q73.5 76.80000000000001 75.15 79.25Q76.80000000000001 81.7 79.30000000000001 82.85Q81.80000000000001 84.0 84.2 84.0Z M142.0 98.30000000000001Q136.9 98.30000000000001 133.25 97.20000000000002Q129.6 96.10000000000001 127.2 93.80000000000001Q124.80000000000001 91.5 123.65 87.95Q122.5 84.4 122.5 79.5V63.50000000000001H119.0Q116.10000000000001 63.400000000000006 114.95 61.75Q113.8 60.1 113.8 56.2Q113.8 52.6 115.2 50.85Q116.60000000000001 49.1 119.4 49.1H122.5V38.900000000000006Q122.5 36.900000000000006 122.85 35.300000000000004Q123.2 33.7 124.80000000000001 32.650000000000006Q126.4 31.60000000000001 130.0 31.60000000000001Q133.6 31.60000000000001 135.2 32.7Q136.8 33.800000000000004 137.15 35.5Q137.5 37.2 137.5 39.2V48.900000000000006L144.2 48.7Q146.1 48.7 147.8 49.050000000000004Q149.5 49.400000000000006 150.6 51.0Q151.7 52.6 151.7 56.300000000000004Q151.7 59.7 150.64999999999998 61.300000000000004Q149.6 62.900000000000006 147.89999999999998 63.35000000000001Q146.2 63.800000000000004 144.2 63.800000000000004L137.5 63.6V78.9Q137.5 80.5 137.75 81.55000000000001Q138.0 82.60000000000001 138.5 83.10000000000001Q139.0 83.60000000000001 139.9 83.80000000000001Q140.8 84.0 142.1 84.0Q144.3 84.0 146.0 84.4Q147.7 84.80000000000001 148.64999999999998 86.20000000000002Q149.6 87.60000000000001 149.6 90.9Q149.6 94.5 148.5 96.1Q147.4 97.7 145.65 98.0Q143.9 98.30000000000001 142.0 98.30000000000001Z M182.10000000000002 98.7Q177.70000000000002 98.7 173.15000000000003 97.05000000000001Q168.60000000000002 95.4 164.75 92.15Q160.9 88.9 158.60000000000002 84.15Q156.3 79.4 156.3 73.2Q156.3 67.0 158.60000000000002 62.3Q160.9 57.6 164.7 54.400000000000006Q168.5 51.2 173.05 49.550000000000004Q177.60000000000002 47.900000000000006 181.9 47.900000000000006Q185.60000000000002 47.900000000000006 188.55 48.75Q191.5 49.6 193.55 50.8Q195.60000000000002 52.0 196.5 52.900000000000006Q198.20000000000002 54.2 199.5 55.5Q200.8 56.800000000000004 200.70000000000002 58.900000000000006Q200.60000000000002 60.00000000000001 200.0 61.150000000000006Q199.4 62.300000000000004 198.5 63.50000000000001Q195.5 67.7 192.5 67.30000000000001Q191.0 67.0 189.75 66.30000000000001Q188.5 65.60000000000001 187.35000000000002 64.85Q186.20000000000002 64.1 184.90000000000003 63.599999999999994Q183.60000000000002 63.1 181.9 63.1Q179.0 63.1 176.7 64.4Q174.4 65.7 173.05 68.0Q171.70000000000002 70.30000000000001 171.70000000000002 73.30000000000001Q171.70000000000002 76.2 173.05 78.5Q174.4 80.80000000000001 176.65 82.15Q178.9 83.5 181.70000000000002 83.5Q183.4 83.5 184.65 83.1Q185.9 82.7 186.8 82.15Q187.70000000000002 81.60000000000001 188.20000000000002 81.30000000000001Q189.4 80.5 190.5 79.85Q191.60000000000002 79.2 192.8 79.2Q194.20000000000002 79.2 195.70000000000002 80.25Q197.20000000000002 81.30000000000001 199.0 83.60000000000001Q200.60000000000002 85.7 200.85000000000002 87.5Q201.10000000000002 89.30000000000001 200.0 90.9Q198.9 92.5 196.60000000000002 94.0Q195.8 94.7 193.75 95.80000000000001Q191.70000000000002 96.9 188.75 97.80000000000001Q185.8 98.7 182.10000000000002 98.7Z M215.0 98.30000000000001Q211.4 98.30000000000001 209.8 97.25Q208.20000000000002 96.2 207.85000000000002 94.45Q207.5 92.7 207.5 90.7V33.10000000000001Q207.5 31.10000000000001 207.9 29.400000000000006Q208.3 27.700000000000003 209.9 26.650000000000006Q211.5 25.60000000000001 215.10000000000002 25.60000000000001Q218.8 25.60000000000001 220.35000000000002 26.700000000000003Q221.9 27.799999999999997 222.25 29.5Q222.60000000000002 31.200000000000003 222.60000000000002 33.2V53.6Q224.4 51.7 227.25 50.0Q230.10000000000002 48.300000000000004 234.0 48.300000000000004Q240.20000000000002 48.300000000000004 245.15000000000003 51.45Q250.10000000000002 54.6 253.05 60.10000000000001Q256.0 65.60000000000001 256.0 72.7V90.80000000000001Q256.0 92.80000000000001 255.60000000000002 94.5Q255.20000000000002 96.2 253.70000000000002 97.25Q252.20000000000002 98.30000000000001 248.4 98.30000000000001Q244.9 98.30000000000001 243.25 97.25Q241.60000000000002 96.2 241.25 94.45Q240.9 92.7 240.9 90.7V72.60000000000001Q240.9 69.7 239.9 67.65Q238.9 65.60000000000001 236.95 64.4Q235.0 63.2 232.20000000000002 63.2Q228.5 63.2 225.75 65.45Q223.0 67.7 222.60000000000002 70.9V90.80000000000001Q222.60000000000002 92.80000000000001 222.20000000000002 94.5Q221.8 96.2 220.25 97.25Q218.70000000000002 98.30000000000001 215.0 98.30000000000001Z M271.3 98.30000000000001Q267.59999999999997 98.30000000000001 266.04999999999995 97.25Q264.5 96.2 264.15 94.45Q263.8 92.7 263.8 90.80000000000001V55.900000000000006Q263.8 53.900000000000006 264.15 52.2Q264.5 50.5 266.1 49.45Q267.7 48.400000000000006 271.4 48.400000000000006Q275.0 48.400000000000006 276.54999999999995 49.5Q278.09999999999997 50.6 278.45 52.3Q278.8 54.0 278.8 56.1V90.9Q278.8 92.80000000000001 278.45 94.55000000000001Q278.09999999999997 96.30000000000001 276.54999999999995 97.30000000000001Q275.0 98.30000000000001 271.3 98.30000000000001Z" fill="#1B1A20"/><circle cx="271.30" cy="33.35" r="8.32" fill="#5ED6A8"/></g></g></svg>
